<svg xmlns="http://www.w3.org/2000/svg" viewBox="0 0 256 256" role="img" aria-label="SONARA Nexus mark">
<title>SONARA Nexus</title>
<desc>An original dimensional S-shaped nexus formed from three connected light paths.</desc>
<defs>
  <linearGradient id="a" x1="28" y1="26" x2="224" y2="226" gradientUnits="userSpaceOnUse"><stop stop-color="#8B5CF6"/><stop offset=".46" stop-color="#5B7CFF"/><stop offset="1" stop-color="#22D3EE"/></linearGradient>
  <linearGradient id="b" x1="198" y1="32" x2="52" y2="224" gradientUnits="userSpaceOnUse"><stop stop-color="#FF4D8D"/><stop offset="1" stop-color="#FF8A3D"/></linearGradient>
  <filter id="g" x="-40%" y="-40%" width="180%" height="180%"><feGaussianBlur stdDeviation="10" result="b"/><feMerge><feMergeNode in="b"/><feMergeNode in="SourceGraphic"/></feMerge></filter>
</defs>
<rect x="18" y="18" width="220" height="220" rx="58" fill="#0A0D18"/>
<path d="M182 62c-19-19-50-28-78-20-27 7-45 27-41 47 4 22 29 31 64 31h17c30 0 50 13 50 35 0 25-25 47-58 54-33 8-67-2-84-25" fill="none" stroke="url(#a)" stroke-width="22" stroke-linecap="round" filter="url(#g)"/>
<path d="M74 187c17 18 48 26 76 17 26-8 43-28 38-48-5-21-28-29-61-29h-18c-32 0-52-14-52-37 0-25 24-46 57-53 32-7 65 2 84 24" fill="none" stroke="url(#b)" stroke-width="10" stroke-linecap="round" opacity=".95"/>
<circle cx="128" cy="128" r="11" fill="#F8FAFC"/><circle cx="128" cy="128" r="4" fill="#5B7CFF"/>
</svg>