<svg xmlns="http://www.w3.org/2000/svg" viewBox="0 0 256 256" role="img" aria-label="SONARA Prism Wave">
  <title>SONARA Prism Wave</title>
  <desc>Three original precision paths converge through a human approval aperture, representing Business Builder, Creator Studio, and Growth Studio connected by SONARA Nexus.</desc>
  <defs>
    <linearGradient id="forge" x1="34" y1="42" x2="205" y2="102" gradientUnits="userSpaceOnUse"><stop stop-color="#FF4D6D"/><stop offset=".58" stop-color="#FF8A3D"/><stop offset="1" stop-color="#FFC43D"/></linearGradient>
    <linearGradient id="canvas" x1="32" y1="98" x2="213" y2="164" gradientUnits="userSpaceOnUse"><stop stop-color="#FF4D8D"/><stop offset=".5" stop-color="#8B5CF6"/><stop offset="1" stop-color="#4F6FFF"/></linearGradient>
    <linearGradient id="signal" x1="45" y1="154" x2="207" y2="219" gradientUnits="userSpaceOnUse"><stop stop-color="#4F6FFF"/><stop offset=".52" stop-color="#14C8E5"/><stop offset="1" stop-color="#20C98B"/></linearGradient>
  </defs>
  <path d="M199 57C173 37 132 34 96 45C61 56 42 79 50 101C58 121 84 130 126 128" fill="none" stroke="url(#forge)" stroke-width="23" stroke-linecap="round"/>
  <path d="M126 128C165 126 196 133 206 154C217 178 194 202 161 214C127 226 89 219 63 195" fill="none" stroke="url(#signal)" stroke-width="23" stroke-linecap="round"/>
  <path d="M63 195C44 176 44 154 61 141C78 128 101 131 128 128C157 125 181 119 193 102C204 86 205 69 199 57" fill="none" stroke="url(#canvas)" stroke-width="11" stroke-linecap="round"/>
  <path d="M79 128h96" fill="none" stroke="#11162A" stroke-opacity=".12" stroke-width="2" stroke-dasharray="3 8"/>
  <circle cx="127" cy="128" r="15" fill="#FFFFFF" stroke="#11162A" stroke-width="5"/>
  <path d="M121 128l5 5 9-11" fill="none" stroke="#11162A" stroke-width="4" stroke-linecap="round" stroke-linejoin="round"/>
</svg>
