<svg xmlns="http://www.w3.org/2000/svg" viewBox="0 0 512 512" role="img" aria-label="SONARA mark">
  <defs>
    <linearGradient id="g" x1="64" y1="48" x2="448" y2="464" gradientUnits="userSpaceOnUse">
      <stop stop-color="#f4c56f"/>
      <stop offset="0.5" stop-color="#ff6b5f"/>
      <stop offset="1" stop-color="#8b6cff"/>
    </linearGradient>
  </defs>
  <rect width="512" height="512" rx="120" fill="#080812"/>
  <path d="M108 350c74 42 179 48 238 3 30-23 34-61 7-82-23-18-61-19-112-20-72-2-132-17-132-79 0-61 68-106 150-106 50 0 96 14 132 39l-42 61c-58-38-154-33-154 8 0 27 51 29 91 30 77 2 158 18 158 87 0 78-90 136-190 136-70 0-132-19-183-53l37-24Z" fill="url(#g)"/>
  <path d="M121 145h270" stroke="#fffaf0" stroke-width="22" stroke-linecap="round" opacity=".88"/>
  <path d="M121 390h270" stroke="#fffaf0" stroke-width="22" stroke-linecap="round" opacity=".72"/>
</svg>
